<svg width="544" height="635" viewBox="0 0 544 635" fill="none" xmlns="http://www.w3.org/2000/svg">
<rect width="544" height="635" rx="200" fill="#FDF9F3"/>
<path d="M288.115 44.9789C287.649 45.5292 286.929 46.4605 286.506 47.0954C285.914 48.0691 285.448 48.2384 283.67 48.3654L281.511 48.4924L280.41 51.0323C279.775 52.4292 278.929 54.2495 278.463 55.0538C277.701 56.493 276.516 59.4563 275.712 62.0808C275.458 62.7581 274.738 63.9011 274.018 64.5784C273.341 65.2134 272.579 66.441 272.325 67.2876C272.071 68.1342 271.309 70.7165 270.589 73.0447C268.388 80.0717 268.177 81.003 267.838 83.3736C267.711 84.6435 267.203 86.7601 266.737 88.0301C266.314 89.3424 265.764 91.8399 265.552 93.5755C265.256 95.6921 264.705 97.597 263.859 99.2056C263.139 100.56 262.292 102.846 261.954 104.243C261.658 105.64 260.515 108.307 259.456 110.127C258.398 111.947 257.509 113.641 257.509 113.852C257.509 114.106 256.662 115.122 255.604 116.138C253.826 117.916 253.699 118.17 253.699 120.329C253.699 122.488 253.572 122.742 251.921 124.308C250.905 125.197 249.085 127.187 247.857 128.711C246.63 130.235 244.725 132.224 243.582 133.156C242.439 134.087 240.957 135.695 240.322 136.754C238.925 138.955 234.354 143.527 233.549 143.527C233.211 143.527 230.925 144.924 228.427 146.617C225.887 148.31 223.559 149.834 223.178 149.961C222.797 150.131 222.162 151.146 221.781 152.247C221.4 153.39 220.596 154.829 219.961 155.464C218.987 156.48 218.903 156.819 219.284 157.454C220.003 158.597 219.622 158.766 216.574 158.766H213.907V160.205C213.907 161.01 213.611 161.941 213.273 162.322C212.214 163.338 212.468 164.693 213.696 164.693C214.669 164.693 214.754 164.862 214.754 166.597C214.754 167.656 214.5 168.883 214.246 169.349C213.569 170.45 214.204 171.085 216.278 171.423C217.59 171.635 217.929 171.931 218.352 173.159C218.818 174.513 218.987 174.64 220.257 174.513C221.189 174.387 221.908 174.64 222.585 175.275C223.771 176.376 226.48 177.053 227.496 176.503C228.597 175.91 229.57 176.037 229.57 176.757C229.57 177.604 230.671 178.027 231.39 177.477C231.644 177.265 233.592 177.053 235.666 177.053C239.137 177.053 239.518 176.969 240.195 176.08L240.957 175.064L241.973 176.037C242.524 176.545 243.243 176.926 243.582 176.799C243.921 176.715 244.683 176.503 245.318 176.376C246.333 176.122 246.418 175.995 246.206 174.64C245.953 172.99 246.503 172.736 247.942 173.794C249.254 174.81 250.101 174.556 250.863 172.905C251.286 172.101 251.837 171.466 252.133 171.593C252.726 171.762 253.022 173.286 252.683 174.598C252.387 175.783 249.466 180.186 246.884 183.361C245.826 184.631 244.344 186.747 243.624 188.017C242.905 189.287 241.719 190.98 241 191.785C240.28 192.589 239.095 194.071 238.417 195.044C237.698 196.06 236.978 196.865 236.767 196.865C236.555 196.865 235.285 197.923 233.973 199.193C232.66 200.505 230.755 202.114 229.74 202.833C228.597 203.595 227.792 204.527 227.623 205.246C227.284 206.643 225.168 208.971 223.432 209.86C222.204 210.453 219.411 213.247 219.411 213.882C219.411 214.051 218.733 214.644 217.929 215.194C216.32 216.295 213.484 219.808 212.172 222.391C211.706 223.279 210.563 224.465 209.505 225.142C207.6 226.285 205.272 228.91 204.806 230.264C204.679 230.688 203.79 231.365 202.774 231.83C201.801 232.254 200.361 233.143 199.599 233.778C198.837 234.413 197.271 235.429 196.171 236.021C195.028 236.572 193.25 237.757 192.191 238.646C191.133 239.535 189.778 240.593 189.186 241.016C188.001 241.863 187.831 242.583 188.551 243.768C189.482 245.207 186.561 249.144 181.397 253.462C180.254 254.478 179.153 255.282 178.984 255.282C177.799 255.282 170.306 263.621 170.306 264.976C170.306 265.23 170.899 265.696 171.576 266.077C172.973 266.796 173.015 266.881 172.465 267.897C172.211 268.405 172.38 269.209 172.973 270.522C173.819 272.257 174.031 272.426 175.259 272.299C176.444 272.215 176.698 272.384 176.91 273.315C177.206 274.416 177.248 274.416 179.831 274.162C181.355 273.993 182.963 274.077 183.725 274.374C184.783 274.712 185.334 274.67 186.223 274.204C187.112 273.739 187.662 273.696 188.551 274.035C189.482 274.416 189.905 274.374 190.498 273.866C191.218 273.231 195.197 270.945 195.536 270.945C196.128 270.945 195.536 272.68 194.858 273.061C193.504 273.781 193.885 274.331 195.62 274.331C197.271 274.331 201.674 272.426 203.706 270.86C204.425 270.31 205.103 270.141 206.076 270.352C207.007 270.522 207.558 270.395 207.939 269.929C208.32 269.506 209.209 269.252 210.352 269.252C212.087 269.252 212.807 269.04 217.125 267.135C218.098 266.712 219.58 266.204 220.384 266.077C221.231 265.907 222.416 265.188 223.22 264.383C223.982 263.579 225.125 262.817 225.76 262.69C226.395 262.563 227.454 261.886 228.089 261.209C228.851 260.404 229.74 259.939 230.459 259.939C231.814 259.939 235.243 257.78 236.216 256.298C236.682 255.578 237.232 255.282 238.29 255.282C239.264 255.282 239.857 255.028 240.153 254.478C240.365 254.012 241 253.589 241.508 253.504C242.227 253.42 242.524 253.039 242.608 252.107C242.735 250.71 247.857 244.657 248.45 245.25C248.619 245.419 248.535 245.8 248.281 246.054C247.646 246.689 247.603 249.44 248.281 250.118C248.619 250.456 248.492 251.176 247.688 253.039C247.095 254.393 246.164 256.594 245.656 257.907C245.106 259.261 243.921 261.209 243.032 262.309C242.143 263.367 241.423 264.553 241.423 264.849C241.423 265.188 240.28 266.712 238.883 268.193C237.486 269.675 236.343 271.072 236.343 271.283C236.343 271.495 235.624 272.426 234.777 273.358C233.888 274.289 232.322 276.448 231.263 278.099C230.247 279.792 228.851 281.57 228.173 282.036C227.496 282.501 226.353 283.729 225.633 284.703C223.051 288.131 217.167 295.285 215.643 296.809C212.553 299.857 208.785 303.879 207.642 305.318C204.976 308.705 200.785 313.065 197.948 315.435C196.298 316.832 194.731 318.526 194.435 319.203C194.181 319.838 193.419 320.6 192.784 320.896C192.107 321.15 190.879 322.124 190.032 323.055C189.144 323.944 188.255 324.706 188.043 324.706C187.874 324.706 186.773 325.553 185.588 326.569C184.275 327.754 182.963 328.516 181.905 328.685C180.974 328.854 179.788 329.447 179.196 329.955C178.603 330.505 175.682 332.199 172.634 333.807C169.629 335.373 166.708 337.067 166.157 337.532C165.015 338.591 164.93 339.818 166.073 340.157C166.538 340.284 166.919 340.58 166.919 340.792C166.919 341.427 164.761 343.755 164.168 343.755C163.829 343.755 162.686 344.517 161.628 345.448C160.57 346.38 159.511 347.142 159.257 347.142C159.046 347.142 158.876 347.777 158.876 348.581C158.876 350.401 158.368 350.782 156.972 349.851C155.956 349.174 155.786 349.174 154.135 349.936C153.204 350.359 151.849 351.417 151.13 352.306C150.325 353.28 149.479 353.915 148.886 353.915C148.378 353.915 147.532 354.253 146.981 354.719L146.008 355.523L146.812 357.005C147.659 358.656 147.743 358.275 145.5 363.566C144.738 365.344 144.695 365.217 146.177 365.979C146.854 366.36 147.447 366.953 147.447 367.376C147.447 368.477 147.955 368.985 149.267 369.323C150.241 369.535 150.495 369.408 150.918 368.519C151.468 367.292 151.976 367.207 153.289 368.138L154.22 368.773L153.373 370.001C152.273 371.567 152.315 372.033 153.585 372.625C154.389 373.006 155.024 372.922 156.548 372.329C158.368 371.652 158.538 371.652 159.3 372.329C160.104 373.091 161.713 373.26 163.745 372.795C164.591 372.625 165.311 372.71 165.861 373.133C166.665 373.768 166.623 373.853 164.422 375.842C162.009 378.044 162.051 378.848 164.507 378.128C165.226 377.917 167.004 377.493 168.401 377.197C169.798 376.943 171.999 376.435 173.312 376.096C174.581 375.758 176.19 375.504 176.825 375.504C177.756 375.504 177.926 375.377 177.714 374.7C177.418 373.726 178.222 373.091 178.899 373.768C179.704 374.573 180.889 374.276 182.624 372.879C184.064 371.736 184.402 371.609 185.291 372.033C186.138 372.414 186.519 372.329 187.366 371.652C187.958 371.228 188.89 370.847 189.44 370.847C190.71 370.847 191.429 370.339 192.064 369.112C192.445 368.307 192.953 368.053 194.35 367.969C195.874 367.842 196.086 367.715 195.705 367.249C195.155 366.572 195.409 365.344 196.128 365.344C196.382 365.344 196.763 365.81 196.975 366.403C197.314 367.292 197.525 367.376 198.329 367.08C200.658 366.149 202.139 365.175 202.986 364.074C203.494 363.355 204.425 362.762 205.23 362.635C205.991 362.466 206.923 362 207.346 361.534C207.769 361.069 208.489 360.688 208.955 360.688C209.463 360.688 210.944 359.841 212.257 358.783C213.611 357.725 215.135 356.878 215.728 356.878C216.278 356.878 217.167 356.497 217.717 356.031C218.268 355.566 218.945 355.185 219.199 355.185C220.003 355.185 221.866 353.576 222.458 352.348C222.882 351.544 223.728 350.994 225.676 350.317C227.115 349.809 228.851 348.92 229.486 348.327C230.755 347.142 232.025 346.718 235.412 346.464C237.021 346.337 237.698 346.464 237.867 346.888C238.121 347.607 234.946 352.306 232.999 354.084C229.951 356.836 229.57 357.301 229.57 358.063C229.57 358.868 227.919 360.688 227.2 360.688C226.946 360.688 225.845 362.127 224.744 363.863C223.644 365.598 222.585 367.038 222.374 367.038C222.204 367.038 221.485 367.546 220.808 368.18C220.088 368.858 218.479 370.297 217.125 371.44C215.812 372.541 214.373 374.192 213.907 375.081C213.4 376.054 212.638 376.858 211.918 377.112C211.283 377.324 209.293 378.89 207.473 380.541C205.695 382.192 204.087 383.547 203.875 383.547C203.24 383.547 200.785 386.002 200.785 386.637C200.785 386.976 200.404 387.738 199.938 388.33C199.218 389.219 198.837 389.389 197.694 389.219C196.467 389.008 196.044 389.262 192.996 392.225C191.175 394.003 188.932 395.823 188.001 396.289C187.069 396.754 185.884 397.897 185.207 398.956C183.767 401.284 180.169 403.781 178.01 403.951C176.613 404.078 176.444 404.205 176.317 405.348C176.148 406.66 174.751 408.522 173.904 408.522C173.65 408.522 172.38 409.496 171.068 410.639C169.756 411.782 168.57 412.756 168.401 412.756C167.893 412.756 164.21 415.423 163.321 416.438C162.39 417.497 154.389 421.561 150.96 422.661C149.775 423.085 148.294 423.762 147.659 424.227C147.066 424.735 145.965 425.116 145.203 425.159C144.23 425.243 143.806 425.455 143.722 426.09C143.637 426.556 143.341 427.191 143.087 427.487C142.198 428.588 137.457 430.577 134.451 431.17C130.684 431.89 130.684 431.89 130.387 433.413C130.218 434.133 129.625 434.98 128.906 435.445C128.228 435.911 126.196 437.604 124.376 439.298C121.328 442.134 121.117 442.388 121.413 443.658C121.667 444.758 121.455 445.182 120.143 446.663C117.645 449.415 117.307 451.404 119.254 452.082C119.847 452.336 120.228 453.013 120.566 454.495C120.863 455.976 121.286 456.696 121.963 457.034C122.514 457.288 123.403 458.177 123.953 459.024C125.053 460.633 125.731 461.014 127.593 461.014C128.228 461.014 129.414 461.395 130.176 461.86C131.192 462.453 131.954 462.622 133.139 462.453C134.578 462.199 134.747 462.284 135.001 463.257C135.128 463.892 135.679 464.485 136.144 464.654C136.652 464.781 137.33 465.12 137.668 465.416C138.176 465.839 140.208 466.474 143.129 467.236C143.679 467.363 144.78 467.152 145.584 466.771C146.389 466.39 147.701 465.755 148.548 465.374C150.325 464.527 151.849 464.569 153.204 465.458C154.389 466.22 155.575 466.263 156.252 465.585C156.633 465.204 158.792 465.035 163.11 464.993C169.248 464.908 169.502 464.866 170.772 463.808C172.296 462.538 172.55 462.495 173.481 463.384C174.116 464.019 174.116 464.146 173.312 464.993C172.084 466.305 172.211 467.152 173.735 468.21C174.92 469.057 175.174 469.099 176.994 468.633C178.095 468.337 179.323 467.702 179.788 467.194C180.466 466.432 181.058 466.305 183.894 466.305C186.942 466.263 187.323 466.178 188.466 465.077C189.567 464.019 189.905 463.935 191.387 464.189C192.869 464.442 193.207 464.316 194.139 463.3C194.816 462.58 195.874 462.03 197.06 461.86C200.023 461.31 206.245 459.363 208.574 458.177C209.759 457.585 211.791 456.019 213.103 454.749L215.516 452.463L217.548 452.886C219.199 453.267 219.792 453.225 220.554 452.717C221.062 452.378 221.739 452.124 221.993 452.124C222.755 452.124 226.946 450.007 227.496 449.33C228.131 448.568 229.57 448.568 229.57 449.33C229.57 450.473 230.544 450.812 232.533 450.346C234.862 449.796 238.714 448.356 240.153 447.51C241.338 446.833 250.27 437.858 251.921 435.699C253.699 433.371 255.011 434.048 255.562 437.52C255.858 439.636 255.223 447.425 254.546 450.05C254.038 451.87 254.08 452.082 254.969 453.309C255.943 454.622 256.154 456.273 255.689 458.474C255.011 461.479 253.572 478.751 253.445 485.354C253.361 487.894 253.234 491.831 253.064 494.032C252.81 498.562 252.81 498.011 252.853 509.483C252.853 514.14 252.853 518.331 252.853 518.796C252.81 522.013 253.445 528.321 253.953 529.464C254.757 531.242 254.715 532.977 253.826 534.247C253.234 535.052 253.064 536.237 253.022 539.327C252.895 549.063 252.768 550.545 251.921 552.873C251.413 554.143 250.948 555.963 250.863 556.895C250.778 557.826 250.524 560.408 250.313 562.609C250.101 564.811 249.932 566.8 249.889 567.054C249.847 567.266 249.974 568.621 250.143 570.06C250.397 572.388 250.313 572.769 249.043 575.013C247.9 577.087 247.73 577.637 248.111 578.611C248.365 579.246 248.662 581.108 248.789 582.802C249 585.976 249.339 586.908 250.99 589.109C252.726 591.437 256.662 591.395 256.662 589.067C256.662 587.924 258.102 586.738 259.499 586.738C260.303 586.738 260.472 586.95 260.472 588.008C260.472 589.067 260.642 589.278 261.446 589.278C262.039 589.278 262.927 588.728 263.562 588.008C264.324 587.162 265.129 586.738 265.891 586.738C267.499 586.738 267.669 586.95 267.161 588.728C266.653 590.548 267.161 591.183 268.431 590.294C269.108 589.829 269.362 589.236 269.362 588.051C269.362 586.781 269.701 586.103 270.886 584.876C271.732 584.029 272.621 583.394 272.875 583.479C273.595 583.691 273.764 585.426 273.172 586.569C272.875 587.077 272.748 587.839 272.875 588.178C273.341 589.405 274.696 588.855 276.728 586.654C278.252 585.003 278.802 584.58 279.183 584.961C280.029 585.807 280.791 585.553 283.162 583.521C285.279 581.701 285.575 581.574 286.548 582.04C287.141 582.294 288.115 582.505 288.792 582.505C289.427 582.505 290.57 582.971 291.374 583.564C293.745 585.342 295.734 584.664 293.914 582.717L292.941 581.701L293.872 579.457C294.38 578.23 295.015 576.791 295.269 576.24C295.65 575.521 295.607 575.055 295.184 574.293C294.761 573.446 294.761 573.065 295.353 571.922C295.734 571.16 295.904 570.102 295.777 569.594C295.48 568.451 296.285 566.716 296.92 567.097C297.131 567.224 297.301 568.24 297.216 569.298C297.089 571.16 297.174 571.33 298.486 571.88C300.052 572.6 300.306 573.87 299.036 574.97C298.359 575.521 298.232 576.029 298.444 577.298C298.952 581.066 299.163 581.447 300.645 581.574C303.269 581.828 303.989 580.473 304.666 573.827C305.132 569.255 305.132 569.171 306.233 569.044C307.164 568.917 307.418 568.663 307.63 567.308C307.757 566.419 308.222 565.234 308.688 564.684C309.45 563.71 309.492 563.71 310.635 564.472C311.651 565.149 311.778 565.446 311.566 566.843C311.439 567.732 310.931 569.044 310.381 569.763C309.408 571.076 309.408 571.16 310.127 572.261C310.508 572.896 311.228 574.208 311.736 575.224C312.201 576.24 312.836 576.96 313.09 576.875C313.344 576.791 313.81 575.817 314.064 574.716C314.36 573.573 315.08 572.176 315.63 571.541C316.604 570.483 316.646 570.271 316.477 565.784C316.223 558.376 316.096 556.556 315.757 554.947C315.503 553.804 315.63 553.085 316.096 552.365C316.689 551.476 316.731 550.757 316.35 547.328C315.673 540.724 315.165 537.295 314.868 536.787C314.699 536.533 314.572 534.501 314.572 532.342C314.572 530.141 314.403 528.236 314.191 528.067C313.556 527.686 313.768 525.4 314.487 524.299C315.249 523.114 314.995 520.532 313.937 518.458C313.514 517.611 313.429 516.68 313.598 515.579C313.852 514.097 313.725 513.759 312.794 512.87C311.99 512.108 311.693 511.431 311.693 510.203C311.693 509.314 311.482 508.383 311.228 508.129C310.889 507.79 311.016 507.324 311.736 506.351C312.625 505.123 312.625 504.996 311.99 504.277C311.016 503.218 311.058 502.964 312.625 501.356C313.852 500.086 313.937 499.874 313.387 498.9C312.963 498.054 312.921 497.503 313.302 496.276C313.641 495.26 313.683 494.117 313.471 493.186C313.175 491.873 313.006 491.704 311.778 491.746C310.508 491.831 310.424 491.746 310.424 490.434C310.424 489.545 310.804 488.529 311.482 487.767C312.963 485.989 312.921 485.016 311.312 485.354C310.297 485.566 309.958 485.439 309.577 484.719C308.773 483.238 309.789 481.333 311.312 481.333C313.006 481.333 313.217 480.613 311.863 479.174L310.677 477.946L312.032 476.549C312.794 475.787 313.387 474.856 313.387 474.475C313.387 474.094 312.709 472.909 311.905 471.851C310.466 469.946 310.466 469.903 311.439 469.903C312.752 469.903 313.81 467.702 313.048 466.474C312.371 465.416 312.413 464.358 313.175 463.384C314.106 462.157 313.937 461.522 312.54 460.802C311.058 460.04 310.847 458.728 312.117 458.05C313.979 457.034 314.36 454.749 314.191 445.012C314.149 443.912 314.276 441.837 314.403 440.356C314.614 438.493 314.53 437.477 314.191 437.054C313.852 436.631 313.768 435.361 314.022 432.524C314.191 430.408 314.36 427.191 314.403 425.37C314.445 422.704 314.614 421.899 315.419 420.799C316.181 419.825 316.35 419.148 316.138 418.343C315.376 415.084 315.08 412.459 315.419 411.697C315.588 411.232 315.757 408.268 315.715 405.136C315.673 402.003 315.842 398.956 316.054 398.363C316.265 397.77 316.477 394.045 316.519 390.108C316.604 385.113 316.816 382.531 317.197 381.727C317.662 380.795 317.662 380.33 317.281 379.695C316.562 378.552 316.646 377.747 317.578 377.112C318.043 376.774 318.72 375.842 319.144 374.954C319.779 373.641 319.821 373.133 319.44 371.99C318.805 370.212 318.974 364.328 319.694 363.482C320.202 362.889 320.075 362.339 318.89 359.756C317.705 357.005 317.535 356.243 317.451 352.221C317.366 348.412 317.197 347.48 316.435 346.21C315.165 344.136 315.249 342.909 316.985 340.369C317.789 339.141 318.467 337.913 318.467 337.617C318.467 337.321 318.974 336.77 319.567 336.347C320.541 335.712 320.625 335.458 320.371 334.104C320.244 333.215 319.313 331.225 318.382 329.616L316.604 326.738L317.408 324.748C317.874 323.648 318.213 321.785 318.213 320.473C318.213 316.451 317.789 311.202 317.493 310.906C316.985 310.356 317.154 309.382 317.916 308.832C318.594 308.324 318.594 308.112 318.128 306.8C317.451 304.895 317.874 301.17 318.932 299.773C320.033 298.418 319.948 296.767 318.678 295.116C317.959 294.058 317.747 293.508 318.043 292.957C319.694 289.867 320.16 286.1 319.101 284.068C318.72 283.348 318.594 282.374 318.72 281.57C318.932 280.639 318.72 279.961 317.916 278.903C316.223 276.617 316.138 275.009 317.62 273.358C319.567 271.114 319.948 269.76 318.932 268.363C318.086 267.22 318.086 267.22 318.932 266.5C319.609 265.865 319.736 265.145 319.736 262.182C319.736 259.981 319.99 258.076 320.371 257.102C320.964 255.663 320.964 255.494 320.16 254.647C319.355 253.801 319.355 253.674 319.99 252.361C320.795 250.71 320.498 250.329 318.255 250.118C316.604 249.991 316.562 250.033 316.35 251.472C316.054 253.462 315.122 253.377 313.937 251.261C312.625 248.932 312.667 247.832 314.191 247.027C315.334 246.477 315.419 246.266 315.292 244.403C315.207 242.456 314.064 239.619 313.429 239.619C313.26 239.619 312.879 239.873 312.582 240.127C312.159 240.593 311.947 240.508 311.439 239.873C310.551 238.646 310.677 236.106 311.693 234.836C312.836 233.397 314.233 230.307 314.233 229.206C314.233 227.809 312.752 226.285 310.762 225.65C309.746 225.354 308.476 224.803 307.926 224.465C307.079 223.957 306.614 223.957 305.174 224.38C304.201 224.676 303.1 225.184 302.719 225.523C302 226.158 300.687 226.031 300.687 225.269C300.687 225.057 301.365 224.507 302.169 223.999C303.312 223.322 303.65 222.856 303.65 221.925C303.65 220.528 304.158 219.978 305.894 219.554C306.995 219.3 307.037 219.173 306.783 217.819C306.571 216.549 306.614 216.337 307.333 216.337C307.799 216.337 308.773 216.633 309.535 217.014C311.693 218.115 313.641 217.522 314.657 215.448C316.096 212.654 317.154 211.681 318.847 211.681C320.033 211.681 320.625 211.342 322.065 209.776C323.716 208.04 323.885 207.659 324.139 204.823C324.266 203.172 324.647 201.521 324.943 201.182C325.197 200.801 325.494 199.658 325.536 198.6C325.536 197.542 325.705 196.018 325.875 195.256C326.129 194.24 326.002 193.647 325.451 193.055C324.266 191.785 323.038 186.832 322.742 182.472L322.488 178.45L321.26 178.239C320.329 178.069 319.906 177.731 319.694 176.842C319.525 176.207 318.551 174.725 317.578 173.54C316.265 171.974 315.8 171.042 315.842 170.153C315.927 169.307 315.63 168.756 314.699 168.121C313.852 167.529 313.514 166.978 313.683 166.428C313.81 165.963 313.556 165.412 313.09 165.074C312.625 164.735 312.117 163.846 311.99 163.126C311.82 162.364 311.397 161.221 310.974 160.629C310.127 159.316 308.773 155.507 308.73 154.406C308.73 153.178 310.804 149.961 313.725 146.575C316.435 143.442 316.435 143.442 316.181 141.368C315.927 139.421 315.969 139.294 317.197 138.659C318.678 137.897 318.72 137.727 317.62 136.33C316.985 135.526 316.773 134.595 316.773 132.648C316.773 131.208 316.985 129.896 317.197 129.769C318.213 129.134 317.578 127.187 315.715 125.028C314.106 123.208 313.81 122.573 313.81 121.049C313.81 118.89 310.635 112.709 308.942 111.609C307.714 110.804 306.995 109.238 306.952 107.333C306.952 106.614 306.571 105.471 306.148 104.751C305.682 104.031 305.344 102.719 305.344 101.83C305.344 100.56 304.963 99.7983 303.481 98.0627C301.365 95.5651 300.603 92.8559 301.703 91.8822C302.677 91.1203 302.592 90.824 300.518 88.792C298.698 86.9718 298.698 86.9295 298.401 83.0773C298.147 79.9024 297.936 79.0981 297.258 78.5901C296.115 77.7858 295.607 75.7539 295.607 71.9017C295.607 69.0232 295.523 68.6422 294.761 68.3882C293.618 68.0496 293.703 66.7796 294.972 64.1551C295.565 62.9698 296.031 61.8268 296.031 61.5305C296.031 60.6415 295.184 60.4722 294.126 61.1495C292.856 61.9961 290.57 62.0385 290.274 61.2342C290.147 60.8955 290.358 60.1336 290.739 59.5409C291.374 58.6096 291.417 58.2286 290.951 57.128C290.528 56.1544 290.528 55.6041 290.909 54.7574C291.459 53.5298 291.036 52.9372 289.512 52.9372C288.961 52.9372 288.834 52.7255 289.046 52.1752C289.385 51.2439 289.596 50.0163 289.85 46.6721C290.104 43.7512 289.639 43.2856 288.115 44.9789ZM308.815 146.067C308.646 148.014 308.434 148.268 307.46 147.675C306.995 147.379 306.529 146.871 306.402 146.532C306.063 145.686 307.037 144.754 308.053 144.881C308.73 144.966 308.9 145.262 308.815 146.067ZM205.78 266.331C205.949 267.22 204.298 269.252 203.409 269.252C203.028 269.252 202.097 269.929 201.377 270.776C199.684 272.638 198.499 272.596 198.329 270.649C198.202 269.379 198.287 269.294 199.811 268.998C201.547 268.701 202.901 267.77 202.901 266.881C202.901 265.569 205.526 265.061 205.78 266.331ZM170.221 338.76C169.967 339.437 168.697 340.199 168.359 339.818C167.978 339.437 168.994 338.252 169.756 338.252C170.094 338.252 170.306 338.464 170.221 338.76ZM211.876 355.269C211.241 355.904 210.775 355.439 211.114 354.507C211.325 353.957 211.495 353.872 211.876 354.253C212.257 354.634 212.257 354.888 211.876 355.269ZM196.848 364.328C196.467 364.709 195.663 364.074 195.959 363.566C196.128 363.312 196.382 363.312 196.679 363.609C196.933 363.863 197.017 364.159 196.848 364.328ZM189.398 367.672C189.398 367.926 188.974 368.18 188.424 368.223C187.62 368.392 187.577 368.307 188.043 367.715C188.678 366.995 189.44 366.953 189.398 367.672ZM187.239 368.688C187.239 369.196 186.053 369.62 185.799 369.196C185.672 368.985 185.672 368.731 185.842 368.561C186.223 368.18 187.239 368.265 187.239 368.688ZM169.036 372.075C169.036 373.091 168.486 373.472 167.597 373.133C167.089 372.922 167.046 372.71 167.385 372.075C167.935 371.017 169.036 371.059 169.036 372.075ZM214.331 425.413C214.331 426.302 212.976 426.979 212.172 426.513C211.876 426.302 212.003 425.963 212.468 425.413C213.4 424.354 214.331 424.397 214.331 425.413ZM258.356 493.397C258.694 493.821 258.821 494.879 258.694 496.488C258.567 497.8 258.652 499.366 258.864 499.916C259.329 501.229 258.737 501.821 257.721 501.059C257.086 500.594 256.916 499.832 256.832 496.995C256.747 495.048 256.789 493.313 256.916 493.101C257.255 492.593 257.763 492.678 258.356 493.397ZM313.725 551.095C313.641 551.942 313.429 552.662 313.175 552.662C312.667 552.662 312.371 549.698 312.752 548.682C313.217 547.539 313.895 549.233 313.725 551.095ZM309.577 555.032C309.577 555.498 309.408 555.752 309.154 555.625C308.942 555.498 308.73 555.074 308.73 554.736C308.73 554.397 308.942 554.143 309.154 554.143C309.408 554.143 309.577 554.524 309.577 555.032ZM298.105 561.086C298.528 561.551 298.486 561.974 297.936 562.99C297.597 563.71 297.131 564.303 296.92 564.303C296.158 564.303 295.692 561.424 296.327 560.789C296.793 560.324 297.597 560.451 298.105 561.086ZM302.254 570.483C302.592 571.372 301.703 572.261 301.068 571.626C300.518 571.076 300.857 569.806 301.534 569.806C301.788 569.806 302.084 570.102 302.254 570.483ZM252.599 577.129C252.472 577.51 252.175 577.849 251.964 577.849C251.498 577.849 251.456 576.41 251.879 575.986C252.345 575.521 252.895 576.367 252.599 577.129ZM258.271 583.225C258.102 584.876 257.086 585.003 257.086 583.394C257.086 582.505 257.297 582.082 257.763 582.082C258.229 582.082 258.356 582.421 258.271 583.225ZM252.768 585.934C252.683 586.95 252.472 587.797 252.218 587.797C251.752 587.797 251.498 584.834 251.837 583.818C252.26 582.59 252.895 584.072 252.768 585.934Z" fill="#2E2E2E"/>
<path d="M158.665 466.474C158.411 466.94 159.046 467.448 159.469 467.067C159.85 466.686 159.765 466.093 159.342 466.093C159.088 466.093 158.834 466.263 158.665 466.474Z" fill="#2E2E2E"/>
<path d="M169.459 467.363C168.613 467.914 169.332 469.057 170.518 469.057C171.28 469.057 171.576 468.845 171.576 468.252C171.576 467.406 170.306 466.855 169.459 467.363Z" fill="#2E2E2E"/>
<path d="M306.36 572.049C306.021 572.938 306.402 574.039 307.037 574.039C307.841 574.039 308.01 572.727 307.333 572.007C306.698 571.414 306.614 571.414 306.36 572.049Z" fill="#2E2E2E"/>
</svg>
