<svg width="208" height="547" viewBox="0 0 208 547" fill="none" xmlns="http://www.w3.org/2000/svg">
<path d="M170.115 0.978914C169.649 1.52922 168.929 2.46052 168.506 3.09549C167.914 4.06912 167.448 4.23845 165.67 4.36544L163.511 4.49244L162.41 7.03233C161.775 8.42927 160.929 10.2495 160.463 11.0538C159.701 12.4931 158.516 15.4563 157.712 18.0809C157.458 18.7582 156.738 19.9011 156.018 20.5784C155.341 21.2134 154.579 22.441 154.325 23.2877C154.071 24.1343 153.309 26.7165 152.589 29.0448C150.388 36.0718 150.177 37.0031 149.838 39.3737C149.711 40.6436 149.203 42.7602 148.737 44.0301C148.314 45.3424 147.764 47.84 147.552 49.5756C147.256 51.6922 146.705 53.5971 145.859 55.2057C145.139 56.5603 144.292 58.8462 143.954 60.2431C143.658 61.6401 142.515 64.307 141.456 66.1272C140.398 67.9475 139.509 69.6407 139.509 69.8524C139.509 70.1064 138.662 71.1223 137.604 72.1383C135.826 73.9162 135.699 74.1702 135.699 76.3291C135.699 78.488 135.572 78.742 133.921 80.3083C132.905 81.1973 131.085 83.1869 129.857 84.7108C128.63 86.2347 126.725 88.2243 125.582 89.1556C124.439 90.0869 122.957 91.6955 122.322 92.7538C120.925 94.955 116.354 99.5268 115.549 99.5268C115.211 99.5268 112.925 100.924 110.427 102.617C107.887 104.31 105.559 105.834 105.178 105.961C104.797 106.131 104.162 107.147 103.781 108.247C103.4 109.39 102.596 110.829 101.961 111.464C100.987 112.48 100.903 112.819 101.284 113.454C102.003 114.597 101.622 114.766 98.5744 114.766H95.9075V116.205C95.9075 117.01 95.6112 117.941 95.2725 118.322C94.2142 119.338 94.4682 120.693 95.6958 120.693C96.6695 120.693 96.7541 120.862 96.7541 122.598C96.7541 123.656 96.5001 124.883 96.2461 125.349C95.5688 126.45 96.2038 127.085 98.2781 127.423C99.5903 127.635 99.929 127.931 100.352 129.159C100.818 130.514 100.987 130.641 102.257 130.514C103.189 130.387 103.908 130.641 104.585 131.276C105.771 132.376 108.48 133.053 109.496 132.503C110.597 131.911 111.57 132.037 111.57 132.757C111.57 133.604 112.671 134.027 113.39 133.477C113.644 133.265 115.592 133.053 117.666 133.053C121.137 133.053 121.518 132.969 122.195 132.08L122.957 131.064L123.973 132.037C124.524 132.545 125.243 132.926 125.582 132.799C125.921 132.715 126.683 132.503 127.318 132.376C128.333 132.122 128.418 131.995 128.206 130.641C127.953 128.99 128.503 128.736 129.942 129.794C131.254 130.81 132.101 130.556 132.863 128.905C133.286 128.101 133.837 127.466 134.133 127.593C134.726 127.762 135.022 129.286 134.683 130.598C134.387 131.784 131.466 136.186 128.884 139.361C127.826 140.631 126.344 142.747 125.624 144.017C124.905 145.287 123.719 146.981 123 147.785C122.28 148.589 121.095 150.071 120.417 151.044C119.698 152.06 118.978 152.865 118.767 152.865C118.555 152.865 117.285 153.923 115.973 155.193C114.66 156.505 112.755 158.114 111.74 158.833C110.597 159.595 109.792 160.527 109.623 161.246C109.284 162.643 107.168 164.971 105.432 165.86C104.204 166.453 101.411 169.247 101.411 169.882C101.411 170.051 100.733 170.644 99.929 171.194C98.3204 172.295 95.4842 175.808 94.1719 178.391C93.7063 179.28 92.5633 180.465 91.505 181.142C89.6001 182.285 87.2719 184.91 86.8062 186.264C86.6792 186.688 85.7902 187.365 84.7743 187.831C83.8007 188.254 82.3614 189.143 81.5994 189.778C80.8374 190.413 79.2712 191.429 78.1706 192.021C77.0276 192.572 75.2497 193.757 74.1914 194.646C73.1331 195.535 71.7785 196.593 71.1858 197.016C70.0006 197.863 69.8312 198.583 70.5509 199.768C71.4822 201.207 68.5613 205.144 63.3968 209.462C62.2539 210.478 61.1533 211.282 60.9839 211.282C59.7986 211.282 52.306 219.622 52.306 220.976C52.306 221.23 52.8986 221.696 53.5759 222.077C54.9728 222.796 55.0152 222.881 54.4649 223.897C54.2109 224.405 54.3802 225.209 54.9728 226.522C55.8195 228.257 56.0311 228.426 57.2588 228.299C58.444 228.215 58.698 228.384 58.9097 229.315C59.206 230.416 59.2483 230.416 61.8306 230.162C63.3545 229.993 64.9631 230.077 65.7251 230.374C66.7834 230.712 67.3337 230.67 68.2226 230.204C69.1116 229.739 69.6619 229.696 70.5509 230.035C71.4822 230.416 71.9055 230.374 72.4981 229.866C73.2178 229.231 77.1969 226.945 77.5356 226.945C78.1282 226.945 77.5356 228.68 76.8583 229.061C75.5037 229.781 75.8847 230.331 77.6202 230.331C79.2712 230.331 83.6737 228.426 85.7056 226.86C86.4252 226.31 87.1025 226.141 88.0762 226.352C89.0074 226.522 89.5578 226.395 89.9387 225.929C90.3197 225.506 91.2087 225.252 92.3516 225.252C94.0872 225.252 94.8069 225.04 99.1247 223.135C100.098 222.712 101.58 222.204 102.384 222.077C103.231 221.907 104.416 221.188 105.22 220.383C105.982 219.579 107.125 218.817 107.76 218.69C108.395 218.563 109.454 217.886 110.089 217.209C110.851 216.404 111.74 215.939 112.459 215.939C113.814 215.939 117.243 213.78 118.216 212.298C118.682 211.579 119.232 211.282 120.29 211.282C121.264 211.282 121.857 211.028 122.153 210.478C122.365 210.012 123 209.589 123.508 209.504C124.227 209.42 124.524 209.039 124.608 208.107C124.735 206.71 129.857 200.657 130.45 201.25C130.619 201.419 130.535 201.8 130.281 202.054C129.646 202.689 129.603 205.44 130.281 206.118C130.619 206.456 130.492 207.176 129.688 209.039C129.095 210.393 128.164 212.594 127.656 213.907C127.106 215.261 125.921 217.209 125.032 218.309C124.143 219.368 123.423 220.553 123.423 220.849C123.423 221.188 122.28 222.712 120.883 224.193C119.486 225.675 118.343 227.072 118.343 227.284C118.343 227.495 117.624 228.426 116.777 229.358C115.888 230.289 114.322 232.448 113.263 234.099C112.247 235.792 110.851 237.57 110.173 238.036C109.496 238.501 108.353 239.729 107.633 240.703C105.051 244.132 99.167 251.286 97.6431 252.809C94.5529 255.857 90.7854 259.879 89.6424 261.318C86.9755 264.705 82.7847 269.065 79.9485 271.435C78.2976 272.832 76.7313 274.526 76.435 275.203C76.181 275.838 75.419 276.6 74.784 276.896C74.1067 277.15 72.8791 278.124 72.0325 279.055C71.1435 279.944 70.2545 280.706 70.0429 280.706C69.8736 280.706 68.7729 281.553 67.5877 282.569C66.2754 283.754 64.9631 284.516 63.9048 284.685C62.9735 284.854 61.7882 285.447 61.1956 285.955C60.6029 286.505 57.6821 288.199 54.6342 289.807C51.6287 291.374 48.7078 293.067 48.1575 293.532C47.0145 294.591 46.9298 295.818 48.0728 296.157C48.5384 296.284 48.9194 296.58 48.9194 296.792C48.9194 297.427 46.7605 299.755 46.1679 299.755C45.8292 299.755 44.6863 300.517 43.628 301.448C42.5697 302.38 41.5114 303.142 41.2574 303.142C41.0458 303.142 40.8764 303.777 40.8764 304.581C40.8764 306.401 40.3685 306.782 38.9715 305.851C37.9556 305.174 37.7862 305.174 36.1353 305.936C35.204 306.359 33.8494 307.417 33.1298 308.306C32.3255 309.28 31.4788 309.915 30.8862 309.915C30.3782 309.915 29.5316 310.253 28.9813 310.719L28.0076 311.523L28.8119 313.005C29.6586 314.656 29.7432 314.275 27.4996 319.566C26.7377 321.344 26.6953 321.217 28.177 321.979C28.8543 322.36 29.4469 322.953 29.4469 323.376C29.4469 324.477 29.9549 324.985 31.2672 325.323C32.2408 325.535 32.4948 325.408 32.9181 324.519C33.4684 323.292 33.9764 323.207 35.2887 324.138L36.22 324.773L35.3733 326.001C34.2727 327.567 34.315 328.033 35.585 328.625C36.3893 329.006 37.0243 328.922 38.5482 328.329C40.3685 327.652 40.5378 327.652 41.2997 328.329C42.104 329.091 43.7126 329.26 45.7446 328.795C46.5912 328.625 47.3108 328.71 47.8611 329.133C48.6654 329.768 48.6231 329.853 46.4219 331.843C44.009 334.044 44.0513 334.848 46.5065 334.128C47.2262 333.917 49.0041 333.493 50.401 333.197C51.798 332.943 53.9992 332.435 55.3115 332.097C56.5814 331.758 58.19 331.504 58.825 331.504C59.7563 331.504 59.9256 331.377 59.714 330.7C59.4177 329.726 60.222 329.091 60.8993 329.768C61.7036 330.573 62.8889 330.276 64.6244 328.879C66.0637 327.736 66.4024 327.609 67.2913 328.033C68.138 328.414 68.519 328.329 69.3656 327.652C69.9582 327.228 70.8895 326.847 71.4398 326.847C72.7098 326.847 73.4294 326.339 74.0644 325.112C74.4454 324.308 74.9534 324.054 76.3503 323.969C77.8742 323.842 78.0859 323.715 77.7049 323.249C77.1546 322.572 77.4086 321.344 78.1282 321.344C78.3822 321.344 78.7632 321.81 78.9749 322.403C79.3135 323.292 79.5252 323.376 80.3295 323.08C82.6577 322.149 84.1393 321.175 84.9859 320.074C85.4939 319.355 86.4252 318.762 87.2295 318.635C87.9915 318.466 88.9228 318 89.3461 317.534C89.7694 317.069 90.4891 316.688 90.9547 316.688C91.4627 316.688 92.9443 315.841 94.2566 314.783C95.6112 313.725 97.1351 312.878 97.7278 312.878C98.2781 312.878 99.167 312.497 99.7173 312.031C100.268 311.566 100.945 311.185 101.199 311.185C102.003 311.185 103.866 309.576 104.458 308.349C104.882 307.544 105.728 306.994 107.676 306.317C109.115 305.809 110.851 304.92 111.486 304.327C112.755 303.142 114.025 302.718 117.412 302.464C119.021 302.337 119.698 302.464 119.867 302.888C120.121 303.607 116.946 308.306 114.999 310.084C111.951 312.836 111.57 313.301 111.57 314.063C111.57 314.868 109.919 316.688 109.2 316.688C108.946 316.688 107.845 318.127 106.744 319.863C105.644 321.598 104.585 323.038 104.374 323.038C104.204 323.038 103.485 323.546 102.808 324.181C102.088 324.858 100.479 326.297 99.1247 327.44C97.8124 328.541 96.3731 330.192 95.9075 331.081C95.3995 332.054 94.6375 332.859 93.9179 333.113C93.2829 333.324 91.2934 334.89 89.4731 336.541C87.6952 338.192 86.0866 339.547 85.8749 339.547C85.2399 339.547 82.7847 342.002 82.7847 342.637C82.7847 342.976 82.4037 343.738 81.9381 344.33C81.2184 345.219 80.8374 345.389 79.6945 345.219C78.4669 345.008 78.0436 345.262 74.9957 348.225C73.1754 350.003 70.9319 351.823 70.0006 352.289C69.0693 352.754 67.884 353.897 67.2067 354.956C65.7674 357.284 62.1692 359.781 60.0103 359.951C58.6134 360.078 58.444 360.205 58.317 361.348C58.1477 362.66 56.7508 364.523 55.9041 364.523C55.6502 364.523 54.3802 365.496 53.0679 366.639C51.7556 367.782 50.5704 368.756 50.401 368.756C49.8931 368.756 46.2102 371.423 45.3212 372.439C44.39 373.497 36.3893 377.561 32.9604 378.661C31.7751 379.085 30.2935 379.762 29.6586 380.228C29.0659 380.736 27.9653 381.117 27.2033 381.159C26.2297 381.244 25.8064 381.455 25.7217 382.09C25.6371 382.556 25.3407 383.191 25.0867 383.487C24.1978 384.588 19.4567 386.577 16.4511 387.17C12.6836 387.89 12.6836 387.89 12.3873 389.414C12.2179 390.133 11.6253 390.98 10.9057 391.445C10.2284 391.911 8.19645 393.604 6.37619 395.298C3.32832 398.134 3.11666 398.388 3.41298 399.658C3.66697 400.758 3.45531 401.182 2.14303 402.663C-0.354531 405.415 -0.693184 407.404 1.25407 408.082C1.84671 408.336 2.2277 409.013 2.56635 410.495C2.86267 411.976 3.28599 412.696 3.96329 413.035C4.5136 413.289 5.40256 414.177 5.95288 415.024C7.0535 416.633 7.7308 417.014 9.59339 417.014C10.2284 417.014 11.4136 417.395 12.1756 417.86C13.1916 418.453 13.9535 418.622 15.1388 418.453C16.5781 418.199 16.7474 418.284 17.0014 419.257C17.1284 419.892 17.6787 420.485 18.1444 420.654C18.6524 420.781 19.3297 421.12 19.6683 421.416C20.1763 421.839 22.2082 422.474 25.1291 423.236C25.6794 423.363 26.78 423.152 27.5843 422.771C28.3886 422.39 29.7009 421.755 30.5475 421.374C32.3255 420.527 33.8494 420.57 35.204 421.459C36.3893 422.22 37.5746 422.263 38.2519 421.586C38.6329 421.205 40.7918 421.035 45.1096 420.993C51.2477 420.908 51.5017 420.866 52.7716 419.808C54.2955 418.538 54.5495 418.495 55.4808 419.384C56.1158 420.019 56.1158 420.146 55.3115 420.993C54.0839 422.305 54.2109 423.152 55.7348 424.21C56.9201 425.057 57.1741 425.099 58.9943 424.633C60.095 424.337 61.3226 423.702 61.7882 423.194C62.4655 422.432 63.0582 422.305 65.8944 422.305C68.9423 422.263 69.3233 422.178 70.4662 421.078C71.5668 420.019 71.9055 419.935 73.3871 420.189C74.8687 420.443 75.2073 420.316 76.1386 419.3C76.8159 418.58 77.8742 418.03 79.0595 417.86C82.0227 417.31 88.2455 415.363 90.5737 414.177C91.759 413.585 93.7909 412.019 95.1032 410.749L97.5161 408.463L99.548 408.886C101.199 409.267 101.792 409.225 102.554 408.717C103.062 408.378 103.739 408.124 103.993 408.124C104.755 408.124 108.946 406.007 109.496 405.33C110.131 404.568 111.57 404.568 111.57 405.33C111.57 406.473 112.544 406.812 114.533 406.346C116.862 405.796 120.714 404.357 122.153 403.51C123.338 402.833 132.27 393.858 133.921 391.699C135.699 389.371 137.011 390.048 137.562 393.52C137.858 395.636 137.223 403.425 136.546 406.05C136.038 407.87 136.08 408.082 136.969 409.309C137.943 410.622 138.154 412.273 137.689 414.474C137.011 417.479 135.572 434.751 135.445 441.354C135.361 443.894 135.234 447.831 135.064 450.032C134.81 454.562 134.81 454.012 134.853 465.483C134.853 470.14 134.853 474.331 134.853 474.796C134.81 478.014 135.445 484.321 135.953 485.464C136.757 487.242 136.715 488.977 135.826 490.247C135.234 491.052 135.064 492.237 135.022 495.327C134.895 505.063 134.768 506.545 133.921 508.873C133.413 510.143 132.948 511.963 132.863 512.895C132.778 513.826 132.524 516.408 132.313 518.61C132.101 520.811 131.932 522.8 131.889 523.054C131.847 523.266 131.974 524.621 132.143 526.06C132.397 528.388 132.313 528.769 131.043 531.013C129.9 533.087 129.73 533.637 130.111 534.611C130.365 535.246 130.662 537.108 130.789 538.802C131 541.977 131.339 542.908 132.99 545.109C134.726 547.437 138.662 547.395 138.662 545.067C138.662 543.924 140.102 542.739 141.499 542.739C142.303 542.739 142.472 542.95 142.472 544.008C142.472 545.067 142.642 545.278 143.446 545.278C144.039 545.278 144.927 544.728 145.562 544.008C146.324 543.162 147.129 542.739 147.891 542.739C149.499 542.739 149.669 542.95 149.161 544.728C148.653 546.548 149.161 547.183 150.431 546.294C151.108 545.829 151.362 545.236 151.362 544.051C151.362 542.781 151.701 542.104 152.886 540.876C153.732 540.029 154.621 539.394 154.875 539.479C155.595 539.691 155.764 541.426 155.172 542.569C154.875 543.077 154.748 543.839 154.875 544.178C155.341 545.405 156.696 544.855 158.728 542.654C160.252 541.003 160.802 540.58 161.183 540.961C162.029 541.807 162.791 541.553 165.162 539.521C167.279 537.701 167.575 537.574 168.548 538.04C169.141 538.294 170.115 538.505 170.792 538.505C171.427 538.505 172.57 538.971 173.374 539.564C175.745 541.342 177.734 540.664 175.914 538.717L174.941 537.701L175.872 535.457C176.38 534.23 177.015 532.791 177.269 532.24C177.65 531.521 177.607 531.055 177.184 530.293C176.761 529.446 176.761 529.065 177.353 527.922C177.734 527.16 177.904 526.102 177.777 525.594C177.48 524.451 178.285 522.716 178.92 523.097C179.131 523.224 179.301 524.24 179.216 525.298C179.089 527.16 179.174 527.33 180.486 527.88C182.052 528.6 182.306 529.87 181.036 530.97C180.359 531.521 180.232 532.029 180.444 533.299C180.952 537.066 181.163 537.447 182.645 537.574C185.269 537.828 185.989 536.473 186.666 529.827C187.132 525.256 187.132 525.171 188.233 525.044C189.164 524.917 189.418 524.663 189.63 523.308C189.757 522.419 190.222 521.234 190.688 520.684C191.45 519.71 191.492 519.71 192.635 520.472C193.651 521.149 193.778 521.446 193.566 522.843C193.439 523.732 192.931 525.044 192.381 525.764C191.408 527.076 191.408 527.16 192.127 528.261C192.508 528.896 193.228 530.208 193.736 531.224C194.201 532.24 194.836 532.96 195.09 532.875C195.344 532.791 195.81 531.817 196.064 530.716C196.36 529.573 197.08 528.176 197.63 527.541C198.604 526.483 198.646 526.272 198.477 521.784C198.223 514.376 198.096 512.556 197.757 510.947C197.503 509.805 197.63 509.085 198.096 508.365C198.689 507.476 198.731 506.757 198.35 503.328C197.673 496.724 197.165 493.295 196.868 492.787C196.699 492.533 196.572 490.501 196.572 488.342C196.572 486.141 196.403 484.236 196.191 484.067C195.556 483.686 195.768 481.4 196.487 480.299C197.249 479.114 196.995 476.532 195.937 474.458C195.514 473.611 195.429 472.68 195.598 471.579C195.852 470.098 195.725 469.759 194.794 468.87C193.99 468.108 193.693 467.431 193.693 466.203C193.693 465.314 193.482 464.383 193.228 464.129C192.889 463.79 193.016 463.324 193.736 462.351C194.625 461.123 194.625 460.996 193.99 460.277C193.016 459.218 193.058 458.964 194.625 457.356C195.852 456.086 195.937 455.874 195.387 454.9C194.963 454.054 194.921 453.504 195.302 452.276C195.641 451.26 195.683 450.117 195.471 449.186C195.175 447.873 195.006 447.704 193.778 447.746C192.508 447.831 192.424 447.746 192.424 446.434C192.424 445.545 192.804 444.529 193.482 443.767C194.963 441.989 194.921 441.016 193.312 441.354C192.297 441.566 191.958 441.439 191.577 440.719C190.773 439.238 191.789 437.333 193.312 437.333C195.006 437.333 195.217 436.613 193.863 435.174L192.677 433.946L194.032 432.549C194.794 431.787 195.387 430.856 195.387 430.475C195.387 430.094 194.709 428.909 193.905 427.851C192.466 425.946 192.466 425.903 193.439 425.903C194.752 425.903 195.81 423.702 195.048 422.474C194.371 421.416 194.413 420.358 195.175 419.384C196.106 418.157 195.937 417.522 194.54 416.802C193.058 416.04 192.847 414.728 194.117 414.05C195.979 413.035 196.36 410.749 196.191 401.012C196.149 399.912 196.276 397.837 196.403 396.356C196.614 394.493 196.53 393.477 196.191 393.054C195.852 392.631 195.768 391.361 196.022 388.525C196.191 386.408 196.36 383.191 196.403 381.371C196.445 378.704 196.614 377.899 197.419 376.799C198.181 375.825 198.35 375.148 198.138 374.343C197.376 371.084 197.08 368.459 197.419 367.697C197.588 367.232 197.757 364.269 197.715 361.136C197.673 358.003 197.842 354.956 198.054 354.363C198.265 353.77 198.477 350.045 198.519 346.108C198.604 341.113 198.816 338.531 199.197 337.727C199.662 336.795 199.662 336.33 199.281 335.695C198.562 334.552 198.646 333.747 199.578 333.113C200.043 332.774 200.72 331.843 201.144 330.954C201.779 329.641 201.821 329.133 201.44 327.99C200.805 326.212 200.974 320.328 201.694 319.482C202.202 318.889 202.075 318.339 200.89 315.757C199.705 313.005 199.535 312.243 199.451 308.222C199.366 304.412 199.197 303.48 198.435 302.21C197.165 300.136 197.249 298.909 198.985 296.369C199.789 295.141 200.467 293.913 200.467 293.617C200.467 293.321 200.974 292.771 201.567 292.347C202.541 291.712 202.625 291.458 202.371 290.104C202.244 289.215 201.313 287.225 200.382 285.616L198.604 282.738L199.408 280.748C199.874 279.648 200.213 277.785 200.213 276.473C200.213 272.451 199.789 267.202 199.493 266.906C198.985 266.356 199.154 265.382 199.916 264.832C200.594 264.324 200.594 264.112 200.128 262.8C199.451 260.895 199.874 257.17 200.932 255.773C202.033 254.418 201.948 252.767 200.678 251.116C199.959 250.058 199.747 249.508 200.043 248.957C201.694 245.867 202.16 242.1 201.101 240.068C200.72 239.348 200.594 238.374 200.72 237.57C200.932 236.639 200.72 235.962 199.916 234.903C198.223 232.617 198.138 231.009 199.62 229.358C201.567 227.114 201.948 225.76 200.932 224.363C200.086 223.22 200.086 223.22 200.932 222.5C201.609 221.865 201.736 221.145 201.736 218.182C201.736 215.981 201.99 214.076 202.371 213.102C202.964 211.663 202.964 211.494 202.16 210.647C201.355 209.801 201.355 209.674 201.99 208.361C202.795 206.71 202.498 206.329 200.255 206.118C198.604 205.991 198.562 206.033 198.35 207.472C198.054 209.462 197.122 209.377 195.937 207.261C194.625 204.932 194.667 203.832 196.191 203.028C197.334 202.477 197.419 202.266 197.292 200.403C197.207 198.456 196.064 195.62 195.429 195.62C195.26 195.62 194.879 195.874 194.582 196.128C194.159 196.593 193.947 196.508 193.439 195.874C192.551 194.646 192.677 192.106 193.693 190.836C194.836 189.397 196.233 186.307 196.233 185.206C196.233 183.809 194.752 182.285 192.762 181.65C191.746 181.354 190.476 180.803 189.926 180.465C189.079 179.957 188.614 179.957 187.174 180.38C186.201 180.676 185.1 181.184 184.719 181.523C184 182.158 182.687 182.031 182.687 181.269C182.687 181.057 183.365 180.507 184.169 179.999C185.312 179.322 185.65 178.856 185.65 177.925C185.65 176.528 186.158 175.978 187.894 175.554C188.995 175.3 189.037 175.173 188.783 173.819C188.571 172.549 188.614 172.337 189.333 172.337C189.799 172.337 190.773 172.633 191.535 173.014C193.693 174.115 195.641 173.522 196.657 171.448C198.096 168.654 199.154 167.681 200.847 167.681C202.033 167.681 202.625 167.342 204.065 165.776C205.716 164.04 205.885 163.659 206.139 160.823C206.266 159.172 206.647 157.521 206.943 157.182C207.197 156.801 207.494 155.659 207.536 154.6C207.536 153.542 207.705 152.018 207.875 151.256C208.129 150.24 208.002 149.647 207.451 149.055C206.266 147.785 205.038 142.832 204.742 138.472L204.488 134.45L203.26 134.239C202.329 134.069 201.906 133.731 201.694 132.842C201.525 132.207 200.551 130.725 199.578 129.54C198.265 127.974 197.8 127.042 197.842 126.153C197.927 125.307 197.63 124.756 196.699 124.121C195.852 123.529 195.514 122.979 195.683 122.428C195.81 121.963 195.556 121.412 195.09 121.074C194.625 120.735 194.117 119.846 193.99 119.126C193.82 118.364 193.397 117.221 192.974 116.629C192.127 115.317 190.773 111.507 190.73 110.406C190.73 109.178 192.804 105.961 195.725 102.575C198.435 99.4422 198.435 99.4422 198.181 97.3679C197.927 95.4207 197.969 95.2937 199.197 94.6587C200.678 93.8967 200.72 93.7274 199.62 92.3305C198.985 91.5262 198.773 90.5949 198.773 88.6476C198.773 87.2084 198.985 85.8961 199.197 85.7691C200.213 85.1341 199.578 83.1869 197.715 81.0279C196.106 79.2077 195.81 78.5727 195.81 77.0488C195.81 74.8899 192.635 68.7094 190.942 67.6088C189.714 66.8045 188.995 65.2383 188.952 63.3333C188.952 62.6137 188.571 61.4707 188.148 60.7511C187.682 60.0315 187.344 58.7192 187.344 57.8302C187.344 56.5603 186.963 55.7983 185.481 54.0627C183.365 51.5652 182.603 48.8559 183.703 47.8823C184.677 47.1203 184.592 46.824 182.518 44.7921C180.698 42.9718 180.698 42.9295 180.401 39.0773C180.147 35.9025 179.936 35.0982 179.258 34.5902C178.115 33.7859 177.607 31.754 177.607 27.9018C177.607 25.0233 177.523 24.6423 176.761 24.3883C175.618 24.0496 175.703 22.7797 176.972 20.1551C177.565 18.9698 178.031 17.8269 178.031 17.5306C178.031 16.6416 177.184 16.4723 176.126 17.1496C174.856 17.9962 172.57 18.0385 172.274 17.2342C172.147 16.8956 172.358 16.1336 172.739 15.541C173.374 14.6097 173.417 14.2287 172.951 13.1281C172.528 12.1545 172.528 11.6041 172.909 10.7575C173.459 9.52989 173.036 8.93725 171.512 8.93725C170.961 8.93725 170.834 8.72559 171.046 8.17528C171.385 7.24399 171.596 6.01637 171.85 2.67218C172.104 -0.248702 171.639 -0.714349 170.115 0.978914ZM190.815 102.067C190.646 104.014 190.434 104.268 189.46 103.675C188.995 103.379 188.529 102.871 188.402 102.532C188.063 101.686 189.037 100.754 190.053 100.881C190.73 100.966 190.9 101.262 190.815 102.067ZM87.7798 222.331C87.9492 223.22 86.2982 225.252 85.4093 225.252C85.0283 225.252 84.097 225.929 83.3773 226.776C81.6841 228.638 80.4988 228.596 80.3295 226.649C80.2025 225.379 80.2871 225.294 81.8111 224.998C83.5467 224.701 84.9013 223.77 84.9013 222.881C84.9013 221.569 87.5258 221.061 87.7798 222.331ZM52.2213 294.76C51.9673 295.437 50.6974 296.199 50.3587 295.818C49.9777 295.437 50.9937 294.252 51.7556 294.252C52.0943 294.252 52.306 294.464 52.2213 294.76ZM93.8756 311.269C93.2406 311.904 92.775 311.439 93.1136 310.507C93.3253 309.957 93.4946 309.872 93.8756 310.253C94.2566 310.634 94.2566 310.888 93.8756 311.269ZM78.8479 320.328C78.4669 320.709 77.6626 320.074 77.9589 319.566C78.1282 319.312 78.3822 319.312 78.6785 319.609C78.9325 319.863 79.0172 320.159 78.8479 320.328ZM71.3975 323.673C71.3975 323.927 70.9742 324.181 70.4239 324.223C69.6196 324.392 69.5772 324.308 70.0429 323.715C70.6779 322.995 71.4398 322.953 71.3975 323.673ZM69.2386 324.689C69.2386 325.196 68.0533 325.62 67.7993 325.196C67.6723 324.985 67.6723 324.731 67.8416 324.562C68.2226 324.181 69.2386 324.265 69.2386 324.689ZM51.036 328.075C51.036 329.091 50.4857 329.472 49.5967 329.133C49.0888 328.922 49.0464 328.71 49.3851 328.075C49.9354 327.017 51.036 327.059 51.036 328.075ZM96.3308 381.413C96.3308 382.302 94.9762 382.979 94.1719 382.513C93.8756 382.302 94.0026 381.963 94.4682 381.413C95.3995 380.355 96.3308 380.397 96.3308 381.413ZM140.356 449.397C140.694 449.821 140.821 450.879 140.694 452.488C140.567 453.8 140.652 455.366 140.864 455.916C141.329 457.229 140.737 457.821 139.721 457.059C139.086 456.594 138.916 455.832 138.832 452.996C138.747 451.048 138.789 449.313 138.916 449.101C139.255 448.593 139.763 448.678 140.356 449.397ZM195.725 507.095C195.641 507.942 195.429 508.662 195.175 508.662C194.667 508.662 194.371 505.698 194.752 504.682C195.217 503.539 195.895 505.233 195.725 507.095ZM191.577 511.032C191.577 511.498 191.408 511.752 191.154 511.625C190.942 511.498 190.73 511.074 190.73 510.736C190.73 510.397 190.942 510.143 191.154 510.143C191.408 510.143 191.577 510.524 191.577 511.032ZM180.105 517.086C180.528 517.551 180.486 517.975 179.936 518.99C179.597 519.71 179.131 520.303 178.92 520.303C178.158 520.303 177.692 517.424 178.327 516.789C178.793 516.324 179.597 516.451 180.105 517.086ZM184.254 526.483C184.592 527.372 183.703 528.261 183.068 527.626C182.518 527.076 182.857 525.806 183.534 525.806C183.788 525.806 184.084 526.102 184.254 526.483ZM134.599 533.129C134.472 533.51 134.175 533.849 133.964 533.849C133.498 533.849 133.456 532.41 133.879 531.986C134.345 531.521 134.895 532.367 134.599 533.129ZM140.271 539.225C140.102 540.876 139.086 541.003 139.086 539.394C139.086 538.505 139.297 538.082 139.763 538.082C140.229 538.082 140.356 538.421 140.271 539.225ZM134.768 541.934C134.683 542.95 134.472 543.797 134.218 543.797C133.752 543.797 133.498 540.834 133.837 539.818C134.26 538.59 134.895 540.072 134.768 541.934Z" fill="#2E2E2E"/>
<path d="M40.6647 422.475C40.4107 422.94 41.0457 423.448 41.469 423.067C41.85 422.686 41.7653 422.094 41.342 422.094C41.088 422.094 40.8341 422.263 40.6647 422.475Z" fill="#2E2E2E"/>
<path d="M51.4594 423.363C50.6128 423.914 51.3324 425.057 52.5177 425.057C53.2796 425.057 53.576 424.845 53.576 424.252C53.576 423.406 52.306 422.855 51.4594 423.363Z" fill="#2E2E2E"/>
<path d="M188.36 528.049C188.021 528.938 188.402 530.039 189.037 530.039C189.841 530.039 190.01 528.727 189.333 528.007C188.698 527.415 188.614 527.415 188.36 528.049Z" fill="#2E2E2E"/>
</svg>
